<svg xmlns="http://www.w3.org/2000/svg" version="1.1" viewBox="321.03 331.03 381.23 330.97">
<path d="M0 0 C5.44117166 5.68787465 8.17973918 13.65407829 8.55078125 21.43359375 C8.16450297 29.53256162 5.21789586 36.80795794 -0.09375 42.8984375 C-2.77579221 45.11747453 -5.92685007 46.70652593 -8.94921875 48.43359375 C-8.94921875 61.96359375 -8.94921875 75.49359375 -8.94921875 89.43359375 C1.02039063 89.50707031 1.02039063 89.50707031 11.19140625 89.58203125 C15.42058746 89.61744744 19.6497492 89.65342451 23.87890625 89.69140625 C30.58069971 89.75154161 37.28246614 89.80968297 43.984375 89.85546875 C49.39205911 89.89254325 54.79959204 89.93896133 60.20714569 89.99165726 C62.26260455 90.0100841 64.31809568 90.02523447 66.37360382 90.03693771 C96.87923848 90.21672468 96.87923848 90.21672468 107.05078125 98.43359375 C113.34629168 104.99032868 115.31400691 111.66524542 115.66748047 120.67089844 C115.70507917 121.52481548 115.74267788 122.37873253 115.78141594 123.25852585 C116.30447517 136.90381144 116.19638129 150.57076653 116.18510675 164.22393131 C116.1825355 168.32431665 116.18493355 172.4247 116.18649292 176.52508545 C116.18830011 183.40019133 116.18594587 190.27528639 116.18115234 197.15039062 C116.17570384 205.0553045 116.17748254 212.9601926 116.18297875 220.86510587 C116.18754113 227.70561988 116.18814548 234.54612622 116.18554008 241.38664126 C116.18399552 245.44904168 116.18373296 249.51143005 116.18707657 253.57382965 C116.19000145 257.39240582 116.18789642 261.21094925 116.18218231 265.02952194 C116.18026668 267.06829536 116.18316826 269.10707161 116.18630981 271.14584351 C116.17139895 277.78325426 116.02888073 284.4044587 115.68331909 291.03240967 C115.58500699 292.95427156 115.58500699 292.95427156 115.48470879 294.91495895 C114.53954121 302.57914078 110.89666532 308.46459229 105.05078125 313.43359375 C104.30828125 314.13484375 103.56578125 314.83609375 102.80078125 315.55859375 C96.22033132 320.04526416 89.21705532 320.87640138 81.42471313 320.8212738 C80.49781815 320.82665934 79.57092316 320.83204488 78.61594045 320.83759362 C75.53239661 320.85181873 72.44928536 320.84478289 69.36572266 320.83764648 C67.14581458 320.84335291 64.92590945 320.85031822 62.70600891 320.85844421 C56.69148984 320.87636104 50.67711679 320.87520989 44.66257906 320.86950183 C39.63533462 320.86640769 34.60811812 320.87250499 29.58087766 320.87854058 C17.03995895 320.89338148 4.49911059 320.88977644 -8.04180308 320.87767727 C-18.91379596 320.86774811 -29.78561857 320.88068304 -40.65758519 320.90461146 C-51.84166636 320.92903989 -63.02568591 320.938202 -74.2097975 320.93195873 C-80.48051879 320.92859241 -86.75109945 320.9309828 -93.02180099 320.94820976 C-98.92016201 320.96370711 -104.81819868 320.95969206 -110.71654701 320.94090462 C-112.87598548 320.93722643 -115.03544813 320.94030462 -117.19486427 320.95079041 C-142.06346079 321.06228923 -142.06346079 321.06228923 -152.38671875 313.046875 C-159.14054517 306.07354922 -162.1923244 297.45852905 -162.21664429 287.90789795 C-162.2211754 287.17070408 -162.22570651 286.43351021 -162.23037493 285.67397714 C-162.2429908 283.21455305 -162.24140039 280.75535121 -162.23974609 278.29589844 C-162.24573317 276.52800717 -162.25253913 274.76011851 -162.26010132 272.99223328 C-162.27775184 268.19660152 -162.28245634 263.40104116 -162.28373289 258.60538006 C-162.28515576 255.60650327 -162.28942797 252.60764457 -162.29472733 249.60877228 C-162.31322555 239.13874665 -162.32139833 228.6687719 -162.31982422 218.19873047 C-162.31862337 208.45232885 -162.33971512 198.70614889 -162.37131155 188.95980334 C-162.39750062 180.58166553 -162.40819039 172.20359998 -162.4069134 163.82542157 C-162.40640448 158.82619002 -162.41204902 153.82715542 -162.4332695 148.82796478 C-162.45269583 144.12304369 -162.45274637 139.41850653 -162.43823624 134.71357155 C-162.43615238 132.99232482 -162.44082369 131.27105378 -162.45295715 129.54984856 C-162.52999078 117.85965991 -161.88433465 107.84902009 -153.5234375 98.8984375 C-144.9097437 90.88321374 -135.35192448 90.30055969 -124.15844727 90.22827148 C-123.20157516 90.21837189 -122.24470306 90.20847229 -121.25883484 90.19827271 C-118.11528953 90.16683946 -114.97172915 90.14197254 -111.828125 90.1171875 C-109.64094158 90.09660226 -107.45376199 90.07560538 -105.2665863 90.05421448 C-99.52425251 89.99915595 -93.78188377 89.94967544 -88.03948975 89.90136719 C-82.17408152 89.8510334 -76.3087237 89.79540946 -70.44335938 89.74023438 C-58.94535562 89.63285131 -47.44730799 89.53136264 -35.94921875 89.43359375 C-35.00421107 85.0825447 -34.81965513 80.94592517 -34.8515625 76.5078125 C-34.85297745 75.76022171 -34.8543924 75.01263092 -34.85585022 74.24238586 C-34.86142111 71.8685801 -34.87396815 69.49487072 -34.88671875 67.12109375 C-34.89173752 65.50586074 -34.89629976 63.89062625 -34.90039062 62.27539062 C-34.911381 58.3280882 -34.92862543 54.38085728 -34.94921875 50.43359375 C-35.60921875 50.10359375 -36.26921875 49.77359375 -36.94921875 49.43359375 C-36.28921875 49.43359375 -35.62921875 49.43359375 -34.94921875 49.43359375 C-34.94921875 48.77359375 -34.94921875 48.11359375 -34.94921875 47.43359375 C-35.65046875 47.20671875 -36.35171875 46.97984375 -37.07421875 46.74609375 C-42.46158774 44.28664269 -46.35294641 40.77037578 -48.94921875 35.43359375 C-48.94921875 34.77359375 -48.94921875 34.11359375 -48.94921875 33.43359375 C-49.60921875 33.10359375 -50.26921875 32.77359375 -50.94921875 32.43359375 C-53.34452693 23.09189186 -52.52461677 13.67908067 -47.73046875 5.3046875 C-43.28361002 -1.20501958 -37.24535326 -5.93173932 -29.57421875 -8.00390625 C-18.60313642 -9.81023696 -8.68908899 -6.9826146 0 0 Z M-106.19140625 170.37109375 C-111.76829852 176.91464735 -114.29716944 184.64410413 -114.16796875 193.1875 C-113.23109731 202.80716215 -108.79774107 210.21544037 -101.92578125 216.82421875 C-95.90477624 221.72669714 -88.64322632 223.70355893 -80.94921875 223.43359375 C-71.05885786 222.0872619 -62.98541284 218.4618807 -56.57421875 210.68359375 C-51.63941014 203.47329007 -49.82060785 195.06877946 -50.94921875 186.43359375 C-52.80967682 177.67703776 -56.96529234 171.94963415 -63.94921875 166.43359375 C-77.46077331 157.86123664 -94.56991889 159.45536473 -106.19140625 170.37109375 Z M11.05078125 173.43359375 C5.21605918 180.85127853 4.93460229 189.41050108 5.76416016 198.48339844 C6.92123806 206.35625897 11.92970347 212.63149298 18.05078125 217.43359375 C25.30746561 222.44416153 34.64258623 224.30046735 43.30078125 222.80859375 C50.1448568 221.08660679 57.46089323 217.97610004 62.05078125 212.43359375 C67.24787809 203.67033913 71.0624652 194.56908033 68.51953125 184.28515625 C65.34796815 175.28756964 59.32296597 167.95584674 50.95703125 163.2578125 C35.84074873 157.30718636 21.45862644 161.84715982 11.05078125 173.43359375 Z " fill="#FE7E38" transform="translate(533.94921875,339.56640625)"/>
<path d="M0 0 C0.33 0.66 0.66 1.32 1 2 C1.67804687 1.96519531 2.35609375 1.93039062 3.0546875 1.89453125 C14.12712009 1.57247989 21.98995216 4.01605789 30.5625 11.125 C39.81299636 22.03584186 40.84463594 36.18031835 40 50 C39.16623419 59.8760147 37.06230176 68.05936273 30.6875 75.8125 C21.04860628 83.65811117 12.3331073 85.47233177 0 85 C-1.33449561 82.33100878 -1.12713931 80.29604245 -1.12939453 77.30712891 C-1.13254669 76.11052643 -1.13569885 74.91392395 -1.13894653 73.68106079 C-1.1369223 72.37607635 -1.13489807 71.07109192 -1.1328125 69.7265625 C-1.13348714 68.36485782 -1.1344585 67.00315325 -1.13571167 65.64144897 C-1.13719008 62.77137111 -1.13503549 59.90132426 -1.13037109 57.03125 C-1.12476963 53.41400726 -1.12797658 49.79683967 -1.13382339 46.17959976 C-1.15483055 30.76236701 -1.02199544 15.39045986 0 0 Z " fill="#FE7E37" transform="translate(662,500)"/>
<path d="M0 0 C1.0257622 4.2200133 1.14187112 8.3027508 1.12939453 12.62011719 C1.13114685 13.37026596 1.13289917 14.12041473 1.13470459 14.89329529 C1.13908953 17.36117903 1.13619816 19.82899059 1.1328125 22.296875 C1.13348622 24.01369236 1.13445682 25.73050963 1.13571167 27.44732666 C1.13718385 31.03829866 1.13504844 34.62924574 1.13037109 38.22021484 C1.12465687 42.83291975 1.12796651 47.44556669 1.13394356 52.0582695 C1.13754747 55.59945111 1.13641167 59.14061883 1.13381577 62.68180084 C1.13314691 64.38353736 1.13397347 66.08527513 1.13629532 67.78701019 C1.13882091 70.15719474 1.1349834 72.52728356 1.12939453 74.89746094 C1.13141876 75.6060173 1.13344299 76.31457367 1.13552856 77.04460144 C1.11426639 81.88573361 1.11426639 81.88573361 0 83 C-10.63951735 83.5910843 -19.72231725 82.01908771 -28 75 C-37.39256704 66.22401285 -38.36161204 54.82098325 -38.9296875 42.5703125 C-39.30300953 29.38145816 -37.03818676 17.53759647 -27.84765625 7.72265625 C-19.95689909 0.36573467 -10.32006919 -0.38781053 0 0 Z " fill="#FE7F38" transform="translate(360,502)"/>
<path d="M0 0 C0.33 0 0.66 0 1 0 C1.75647815 10.45709131 2.14548097 20.84246995 2.12939453 31.33203125 C2.13075473 32.78624515 2.1325381 34.24045871 2.13470459 35.69467163 C2.13920542 39.5913772 2.13752011 43.48805586 2.1343255 47.38476181 C2.13176341 51.49584771 2.13415002 55.60693157 2.13571167 59.71801758 C2.13752226 66.61702887 2.13515637 73.51602941 2.13037109 80.41503906 C2.12493063 88.34940739 2.12669408 96.28375001 2.1321975 104.21811771 C2.13676045 111.07553608 2.1373637 117.93294678 2.13475883 124.79036617 C2.13321346 128.86624001 2.13295383 132.94210183 2.13629532 137.01797485 C2.13922065 140.85291348 2.13711436 144.6878195 2.13140106 148.52275467 C2.12948513 150.57110807 2.13238728 152.61946428 2.13552856 154.66781616 C2.12064997 161.32136623 1.97899333 167.95871058 1.63253784 174.6027832 C1.56699644 175.88345169 1.50145504 177.16412018 1.43392754 178.4835968 C0.48830119 186.14663548 -3.15500155 192.03175132 -9 197 C-9.7425 197.70125 -10.485 198.4025 -11.25 199.125 C-17.8542969 203.62792971 -24.86779311 204.441606 -32.68663025 204.3742218 C-33.61987533 204.37819621 -34.5531204 204.38217061 -35.51464564 204.38626546 C-38.61921576 204.39583464 -41.72332404 204.38410318 -44.82788086 204.37231445 C-47.06238982 204.37474407 -49.2968977 204.37846504 -51.53140259 204.38337708 C-57.58252219 204.39276252 -63.6334794 204.38338231 -69.68458629 204.37004495 C-76.01641405 204.35871594 -82.34823399 204.36283883 -88.68006897 204.36479187 C-99.3047282 204.36567393 -109.92931717 204.35468001 -120.55395508 204.33618164 C-131.48887051 204.31714808 -142.42371176 204.31010302 -153.35864258 204.31567383 C-166.54423467 204.32237139 -179.72978571 204.31909755 -192.91537666 204.30657005 C-197.95164154 204.30191686 -202.9878863 204.30105327 -208.02415276 204.3031559 C-213.94457347 204.30503329 -219.8648985 204.29697739 -225.78529739 204.2810955 C-227.96302584 204.27683785 -230.14076396 204.27601198 -232.3184948 204.27878571 C-235.2798548 204.28198657 -238.24092506 204.27297918 -241.20225525 204.26069641 C-242.07353575 204.26447573 -242.94481625 204.26825506 -243.8424992 204.27214891 C-249.77166978 204.22833022 -249.77166978 204.22833022 -252 202 C-250.22805865 201.99918285 -250.22805865 201.99918285 -248.42032051 201.99834919 C-220.35566059 201.98429392 -192.29112236 201.94449277 -164.22654886 201.87314438 C-160.76952261 201.86437801 -157.31249586 201.85582814 -153.85546875 201.84741211 C-153.16725984 201.84573305 -152.47905093 201.84405398 -151.76998721 201.84232404 C-140.63814342 201.81568087 -129.50635112 201.80656089 -118.37447871 201.80395857 C-106.94540314 201.80089515 -95.5165143 201.77853288 -84.08749759 201.73947543 C-77.67077961 201.7181553 -71.25431245 201.70553998 -64.83755875 201.71384621 C-58.79477557 201.72139224 -52.75250038 201.70553996 -46.70981026 201.67193985 C-44.49514704 201.66371342 -42.28043324 201.6639485 -40.06577492 201.67340279 C-23.30080175 202.15018072 -23.30080175 202.15018072 -9.1243763 194.2154665 C-3.61413024 188.38385733 -1.54199325 182.43583518 -1.33227539 174.46801758 C-1.29947762 173.57286092 -1.26667986 172.67770426 -1.23288822 171.75542164 C-0.75539586 156.89801887 -0.76701513 142.02190509 -0.69667697 127.15821433 C-0.67450863 122.67396465 -0.64727382 118.1897455 -0.62062073 113.70552063 C-0.57110393 105.24890387 -0.52601653 96.79226978 -0.48259836 88.33561975 C-0.43287079 78.69321618 -0.37808675 69.05084329 -0.32291877 59.40846956 C-0.20973002 39.60567508 -0.1027586 19.80285118 0 0 Z " fill="#FD6525" transform="translate(648,456)"/>
<path d="M0 0 C5.44117166 5.68787465 8.17973918 13.65407829 8.55078125 21.43359375 C8.16450297 29.53256162 5.21789586 36.80795794 -0.09375 42.8984375 C-2.77579221 45.11747453 -5.92685007 46.70652593 -8.94921875 48.43359375 C-8.94921875 61.96359375 -8.94921875 75.49359375 -8.94921875 89.43359375 C1.02039063 89.50707031 1.02039063 89.50707031 11.19140625 89.58203125 C15.42058746 89.61744744 19.6497492 89.65342451 23.87890625 89.69140625 C30.58069971 89.75154161 37.28246614 89.80968297 43.984375 89.85546875 C49.39205911 89.89254325 54.79959204 89.93896133 60.20714569 89.99165726 C62.26260455 90.0100841 64.31809568 90.02523447 66.37360382 90.03693771 C96.86972267 90.2166686 96.86972267 90.2166686 107.05078125 98.43359375 C109.44841633 100.88304412 111.64348268 103.28786754 113.05078125 106.43359375 C112.6953125 108.67578125 112.6953125 108.67578125 112.05078125 110.43359375 C111.77105469 109.92570312 111.49132812 109.4178125 111.203125 108.89453125 C106.76509781 101.27425304 102.02746112 96.70272249 93.56245613 94.03548241 C89.27089331 93.00706786 85.0609561 92.99437529 80.66577148 93.0012207 C79.66959305 92.99102905 78.67341461 92.9808374 77.64704895 92.97033691 C74.38443258 92.94036414 71.12211058 92.93096495 67.859375 92.921875 C65.58536312 92.90501669 63.3113605 92.8868649 61.03736877 92.86747742 C55.07476696 92.8200967 49.11220269 92.79021012 43.1494751 92.76403809 C37.05595491 92.73417237 30.96256386 92.68766269 24.86914062 92.64257812 C12.92975522 92.55668068 0.99034315 92.48927509 -10.94921875 92.43359375 C-11.20358101 86.15396057 -11.3782054 79.87566111 -11.49853516 73.59204102 C-11.54870827 71.45677056 -11.616868 69.32184173 -11.70361328 67.18774414 C-12.4104592 49.34612147 -12.4104592 49.34612147 -8.78637695 44.6027832 C-6.1015625 42.79296875 -6.1015625 42.79296875 -3.41381836 41.61621094 C0.78603054 39.60094912 2.387323 35.61931892 4.05078125 31.43359375 C6.29451996 24.35496001 5.99279524 15.93759264 2.953125 9.171875 C-0.89456352 1.75966119 -5.36016129 -1.4248461 -12.76171875 -4.87890625 C-22.33604934 -6.94395794 -31.24831543 -5.61413254 -39.63671875 -0.56640625 C-44.2662206 2.92735333 -46.50169352 8.31441095 -48.94921875 13.43359375 C-49.90934701 10.89241596 -50.11719505 9.82015009 -49.015625 7.28515625 C-43.66213457 -0.64079062 -37.67184722 -5.80571784 -28.32421875 -8.25390625 C-17.64303794 -9.24290447 -8.46938246 -6.80605685 0 0 Z " fill="#FD6225" transform="translate(533.94921875,339.56640625)"/>
<path d="M0 0 C-0.6290625 0.25652344 -1.258125 0.51304687 -1.90625 0.77734375 C-9.43808931 4.1462538 -15.89050554 8.7926494 -19.08289528 16.6731596 C-20.10528306 20.38191923 -20.28457739 23.79594378 -20.26742554 27.60835266 C-20.27195665 28.3544192 -20.27648776 29.10048574 -20.28115618 29.86916035 C-20.29377364 32.35855669 -20.29218155 34.84773351 -20.29052734 37.3371582 C-20.29651426 39.12637614 -20.30332019 40.9155915 -20.31088257 42.70480347 C-20.32853334 47.55821731 -20.33323757 52.41156061 -20.33451414 57.26500344 C-20.33593685 60.2993844 -20.34020871 63.33374749 -20.34550858 66.36812401 C-20.36400596 76.96018994 -20.37217957 87.55220556 -20.37060547 98.14428711 C-20.36940422 108.00772314 -20.39050405 117.87094029 -20.4220928 127.73432094 C-20.44827003 136.21095599 -20.45897215 144.68751961 -20.45769465 153.16419476 C-20.45718543 158.22319721 -20.46284634 163.2820051 -20.48405075 168.34096718 C-20.50345741 173.10087579 -20.50354099 177.86040475 -20.48901749 182.620327 C-20.48693129 184.36295694 -20.49161898 186.1056108 -20.5037384 187.84819984 C-20.57824248 199.30686879 -19.87036735 208.56826651 -11.859375 217.42578125 C-8.34686649 220.39960673 -4.20315123 222.19746281 0 224 C-2.41286875 224.87056734 -3.55539942 225.18561853 -5.96484375 224.1796875 C-13.65186196 219.09560021 -19.59630741 213.29050426 -22.55427837 204.31884956 C-23.17348726 201.0974392 -23.13653477 197.99537974 -23.14717102 194.71481323 C-23.15084771 193.97932821 -23.1545244 193.2438432 -23.1583125 192.48607075 C-23.16932925 190.0204919 -23.17318978 187.55495523 -23.17700195 185.08935547 C-23.18326819 183.32176073 -23.18991513 181.5541673 -23.19691467 179.78657532 C-23.21794076 173.98012202 -23.22831661 168.1736685 -23.23828125 162.3671875 C-23.24232953 160.36643587 -23.24644648 158.36568437 -23.25063133 156.36493301 C-23.26968085 146.96338399 -23.28391165 137.56184281 -23.2922433 128.1602782 C-23.30201121 117.31772893 -23.32832014 106.47538406 -23.36874419 95.63290679 C-23.39893579 87.24632563 -23.41371512 78.85980294 -23.41702431 70.47316849 C-23.41937157 65.46718723 -23.4282897 60.46142438 -23.45348549 55.45550156 C-23.47682407 50.74241641 -23.48097621 46.02969259 -23.47072411 41.31656456 C-23.47023002 39.59208789 -23.47651276 37.86759309 -23.49028015 36.14317131 C-23.57846068 24.43792404 -22.93989169 14.44022551 -14.58203125 5.46875 C-10.19623164 1.3969953 -5.99867323 -1.86165721 0 0 Z " fill="#FB5B20" transform="translate(395,433)"/>
<path d="M0 0 C1.0257622 4.2200133 1.14187112 8.3027508 1.12939453 12.62011719 C1.13114685 13.37026596 1.13289917 14.12041473 1.13470459 14.89329529 C1.13908953 17.36117903 1.13619816 19.82899059 1.1328125 22.296875 C1.13348622 24.01369236 1.13445682 25.73050963 1.13571167 27.44732666 C1.13718385 31.03829866 1.13504844 34.62924574 1.13037109 38.22021484 C1.12465687 42.83291975 1.12796651 47.44556669 1.13394356 52.0582695 C1.13754747 55.59945111 1.13641167 59.14061883 1.13381577 62.68180084 C1.13314691 64.38353736 1.13397347 66.08527513 1.13629532 67.78701019 C1.13882091 70.15719474 1.1349834 72.52728356 1.12939453 74.89746094 C1.13141876 75.6060173 1.13344299 76.31457367 1.13552856 77.04460144 C1.11426639 81.88573361 1.11426639 81.88573361 0 83 C-10.61472403 83.58970689 -19.75668227 82.04049899 -28 75 C-31.93413454 71.0911925 -35.86300503 67.01388941 -36.125 61.25 C-36.063125 60.13625 -36.063125 60.13625 -36 59 C-33.80919004 61.19080996 -33.09914523 62.92504946 -31.875 65.75 C-28.49310397 72.60278932 -23.77695142 76.14919982 -16.6875 78.8125 C-11.01809922 80.37911312 -11.01809922 80.37911312 -1 81 C-1 54.93 -1 28.86 -1 2 C-17.41456895 3.72604966 -17.41456895 3.72604966 -29.67578125 12.78125 C-33.72261511 18.41577974 -34.74445679 25.30376953 -36 32 C-36.33 32 -36.66 32 -37 32 C-37.57883983 22.8832726 -35.5067354 16.76494846 -29.6875 9.6875 C-21.44717833 0.88732633 -11.57887809 -0.43511442 0 0 Z " fill="#FD6B2C" transform="translate(360,502)"/>
<path d="M0 0 C0.33 0 0.66 0 1 0 C1.00219984 1.35587172 1.00219984 1.35587172 1.00444412 2.73913479 C1.04152008 24.7486805 1.10054539 46.75807232 1.18390274 68.76749325 C1.22368652 79.41116013 1.2560824 90.05475315 1.27099609 100.69848633 C1.284016 109.97719909 1.31098943 119.25574928 1.35461307 128.53437048 C1.37722014 133.44587864 1.39291113 138.35718634 1.39188385 143.26875114 C1.3911368 147.89567844 1.40910576 152.52216273 1.44116783 157.14897537 C1.44965698 158.84319729 1.45142346 160.53746895 1.44580269 162.2317028 C1.41329694 173.53960381 2.24190222 182.69239962 10.140625 191.42578125 C13.65313351 194.39960673 17.79684877 196.19746281 22 198 C19.58713125 198.87056734 18.44460058 199.18561853 16.03515625 198.1796875 C8.84572526 193.4246975 3.12825733 188.22972313 0 180 C-1.32582355 171.45695146 -1.09346285 162.89898891 -1.02172852 154.28100586 C-1.01157138 152.59497337 -1.0018793 150.90893802 -0.99261475 149.22290039 C-0.9662773 144.66775387 -0.93346938 140.11267463 -0.89946485 135.55757976 C-0.86497878 130.7890256 -0.83649186 126.02043563 -0.80735779 121.25184631 C-0.75134226 112.23166798 -0.68996245 103.21153452 -0.62663645 94.19140488 C-0.5547754 83.91814097 -0.48892327 73.64484125 -0.42356598 63.37153423 C-0.28904474 42.24764297 -0.14700961 21.12380779 0 0 Z " fill="#FE6B27" transform="translate(373,459)"/>
<path d="M0 0 C0.33 0.66 0.66 1.32 1 2 C2.15628906 1.96519531 2.15628906 1.96519531 3.3359375 1.9296875 C4.33882812 1.91164063 5.34171875 1.89359375 6.375 1.875 C7.37273438 1.85179687 8.37046875 1.82859375 9.3984375 1.8046875 C12 2 12 2 14 4 C10.04 4 6.08 4 2 4 C2 30.07 2 56.14 2 83 C5.96 83 9.92 83 14 83 C10.13209997 84.93395001 8.8499541 85.23289353 4.75 85.125 C3.85796875 85.10695313 2.9659375 85.08890625 2.046875 85.0703125 C1.37140625 85.04710937 0.6959375 85.02390625 0 85 C-1.33449561 82.33100878 -1.12713931 80.29604245 -1.12939453 77.30712891 C-1.13254669 76.11052643 -1.13569885 74.91392395 -1.13894653 73.68106079 C-1.1369223 72.37607635 -1.13489807 71.07109192 -1.1328125 69.7265625 C-1.13348714 68.36485782 -1.1344585 67.00315325 -1.13571167 65.64144897 C-1.13719008 62.77137111 -1.13503549 59.90132426 -1.13037109 57.03125 C-1.12476963 53.41400726 -1.12797658 49.79683967 -1.13382339 46.17959976 C-1.15483055 30.76236701 -1.02199544 15.39045986 0 0 Z " fill="#FE5920" transform="translate(662,500)"/>
<path d="M0 0 C0.33 0 0.66 0 1 0 C1 21.45 1 42.9 1 65 C-11.0984848 65 -19.98082441 63.97398776 -28.8203125 55.19140625 C-32.81469297 50.70496442 -35.34410023 47.19380419 -35 41 C-32.80919004 43.19080996 -32.09914523 44.92504946 -30.875 47.75 C-27.49310397 54.60278932 -22.77695142 58.14919982 -15.6875 60.8125 C-10.01809922 62.37911312 -10.01809922 62.37911312 0 63 C0 42.21 0 21.42 0 0 Z " fill="#FE5019" transform="translate(359,520)"/>
<path d="M0 0 C0.66 0.33 1.32 0.66 2 1 C1.52949219 1.49628906 1.05898438 1.99257813 0.57421875 2.50390625 C-6.12007208 9.80802896 -9.37174281 16.6372569 -9.21875 26.75390625 C-8.23964887 36.80717679 -3.71118311 44.07766152 3.9375 50.4609375 C9.94892672 54.94673699 16.77018051 55.88872576 24 57 C24 57.33 24 57.66 24 58 C13.96703657 58.47776016 6.89443391 56.50058859 -0.921875 50.0234375 C-7.21601169 43.89493599 -10.5266687 37.14059805 -11.3359375 28.3515625 C-11.46877835 15.67854509 -8.75601291 9.02656387 0 0 Z " fill="#FD6022" transform="translate(430,506)"/>
<path d="M0 0 C6.80840889 0.54467271 10.40094355 2.84468489 15.5625 7.125 C24.44234342 17.59866147 25.19300323 30.2230889 25.265625 43.4765625 C24.98749216 46.11882444 24.2369378 47.68273768 23 50 C22.98541748 49.42668945 22.97083496 48.85337891 22.95581055 48.26269531 C22.8432716 28.08846611 22.8432716 28.08846611 15 10 C10.48967868 5.84420175 5.71415514 3.14280818 0 1 C0 0.67 0 0.34 0 0 Z " fill="#FC5F24" transform="translate(677,504)"/>
<path d="M0 0 C4.39085146 3.74563092 7.92370843 8.00262834 9.046875 13.74609375 C7.07960809 11.85751751 5.20839347 9.94119527 3.46875 7.83984375 C-1.79608371 1.48409855 -6.84765649 -2.09492956 -14.953125 -4.25390625 C-18.25008022 -4.48510928 -21.52523396 -4.44357129 -24.828125 -4.37890625 C-25.70726562 -4.36988281 -26.58640625 -4.36085938 -27.4921875 -4.3515625 C-29.6459521 -4.32815202 -31.79957514 -4.29228635 -33.953125 -4.25390625 C-25.57127508 -12.63575617 -8.04511725 -5.72002131 0 0 Z " fill="#FE6625" transform="translate(592.953125,506.25390625)"/>
<path d="M0 0 C0.33 0 0.66 0 1 0 C1.08172936 2.5215021 1.14083373 5.04029917 1.1875 7.5625 C1.21263672 8.26697266 1.23777344 8.97144531 1.26367188 9.69726562 C1.37619631 17.83653279 -1.8292974 24.63328527 -7.49609375 30.56640625 C-12.45807868 35.1387665 -18.23386529 38.69256043 -25.0625 39.25 C-25.701875 39.1675 -26.34125 39.085 -27 39 C-24.31948183 37.21298789 -22.24369108 36.30987821 -19.25 35.25 C-11.41961271 32.12696344 -6.59295173 27.83864828 -3 20.14453125 C-0.92923923 13.63295928 -0.52726076 6.78356382 0 0 Z " fill="#FD5E20" transform="translate(483,524)"/>
<path d="M0 0 C-0.6290625 0.25652344 -1.258125 0.51304687 -1.90625 0.77734375 C-9.96808786 4.38331641 -16.01228887 9.27918607 -19.5 17.5625 C-19.665 18.366875 -19.83 19.17125 -20 20 C-20.66 19.67 -21.32 19.34 -22 19 C-20.56356675 11.33902269 -16.13669776 5.96932145 -9.75 1.5625 C-6.01188104 -0.56143123 -4.07752005 -1.26543726 0 0 Z " fill="#FD6626" transform="translate(395,433)"/>
<path d="M0 0 C1.40225285 2.72455269 2.60042966 5.47386799 3.75 8.3125 C7.76610101 17.23879749 13.08490039 21.17672606 22 25 C19.58713125 25.87056734 18.44460058 26.18561853 16.03515625 25.1796875 C8.74693505 20.35935902 3.36166232 15.22206575 0 7 C-0.36725024 4.48892648 -0.27086229 2.54610552 0 0 Z " fill="#FB581E" transform="translate(373,632)"/>
<path d="M0 0 C7.35949226 1.12526507 12.96576818 5.26133206 17.4375 11.125 C19.20949525 13.63911291 20.85616975 16.13755043 22 19 C21.67 19.99 21.34 20.98 21 22 C20.72027344 21.43152344 20.44054687 20.86304688 20.15234375 20.27734375 C15.29245607 10.9169813 9.42881553 5.6395759 0 1 C0 0.67 0 0.34 0 0 Z " fill="#FD6122" transform="translate(461,501)"/>
<path d="M0 0 C1.13323609 1.69985413 2.26035875 3.403928 3.3671875 5.12109375 C7.87834544 12.55895923 7.87834544 12.55895923 15 17 C15 17.66 15 18.32 15 19 C9.46857724 17.21042205 5.44916185 14.07713199 2.125 9.3125 C1 7 1 7 1 5 C0.34 4.67 -0.32 4.34 -1 4 C-0.67 2.68 -0.34 1.36 0 0 Z " fill="#FC6023" transform="translate(484,368)"/>
<path d="M0 0 C0.66 0 1.32 0 2 0 C2 7.92 2 15.84 2 24 C-0.51762922 20.22355618 -0.484693 16.95419332 -0.6875 12.5625 C-0.73455078 11.79873047 -0.78160156 11.03496094 -0.83007812 10.24804688 C-1.02512043 6.57421714 -1.02510578 3.56474192 0 0 Z " fill="#FD6525" transform="translate(322,536)"/>
<path d="M0 0 C0.33 0 0.66 0 1 0 C1 1.65 1 3.3 1 5 C0.67 5 0.34 5 0 5 C0 3.35 0 1.7 0 0 Z " fill="#FE843E" transform="translate(370,578)"/>
<path d="M0 0 C0.33 0 0.66 0 1 0 C1 1.65 1 3.3 1 5 C0.67 5 0.34 5 0 5 C0 3.35 0 1.7 0 0 Z " fill="#FF853E" transform="translate(370,571)"/>
<path d="M0 0 C1 4 1 4 1 4 Z " fill="#FF843E" transform="translate(370,507)"/>
<path d="M0 0 C1 4 1 4 1 4 Z " fill="#FF853F" transform="translate(370,499)"/>
<path d="M0 0 C1 4 1 4 1 4 Z " fill="#FE8540" transform="translate(370,483)"/>
<path d="M0 0 C1 4 1 4 1 4 Z " fill="#FD8642" transform="translate(370,475)"/>
<path d="" fill="#FF843F" transform="translate(0,0)"/>
<path d="" fill="#FC8642" transform="translate(0,0)"/>
<path d="M0 0 C2 1 2 1 2 1 Z " fill="#FE8642" transform="translate(591,661)"/>
<path d="M0 0 C2 1 2 1 2 1 Z " fill="#F68749" transform="translate(626,660)"/>
<path d="" fill="#FE8541" transform="translate(0,0)"/>
<path d="" fill="#FF8540" transform="translate(0,0)"/>
<path d="" fill="#FD863F" transform="translate(0,0)"/>
<path d="M0 0 C2 1 2 1 2 1 Z " fill="#FD8640" transform="translate(565,560)"/>
<path d="" fill="#FF823D" transform="translate(0,0)"/>
<path d="" fill="#FF843D" transform="translate(0,0)"/>
<path d="" fill="#FF833D" transform="translate(0,0)"/>
<path d="" fill="#FF833D" transform="translate(0,0)"/>
<path d="" fill="#FE833E" transform="translate(0,0)"/>
<path d="" fill="#F98546" transform="translate(0,0)"/>
<path d="" fill="#8B8C8C" transform="translate(0,0)"/>
<path d="" fill="#8A8989" transform="translate(0,0)"/>
<path d="" fill="#A59488" transform="translate(0,0)"/>
<path d="" fill="#FF8842" transform="translate(0,0)"/>
<path d="" fill="#FE8540" transform="translate(0,0)"/>
<path d="" fill="#FE8841" transform="translate(0,0)"/>
<path d="" fill="#FF8740" transform="translate(0,0)"/>
<path d="" fill="#FF8840" transform="translate(0,0)"/>
<path d="" fill="#FE8641" transform="translate(0,0)"/>
<path d="" fill="#FE8841" transform="translate(0,0)"/>
<path d="" fill="#FD8842" transform="translate(0,0)"/>
<path d="" fill="#F98B4A" transform="translate(0,0)"/>
<path d="" fill="#F48846" transform="translate(0,0)"/>
<path d="" fill="#FB8744" transform="translate(0,0)"/>
<path d="" fill="#979798" transform="translate(0,0)"/>
<path d="" fill="#FC8742" transform="translate(0,0)"/>
<path d="" fill="#FC8842" transform="translate(0,0)"/>
<path d="" fill="#FE8542" transform="translate(0,0)"/>
<path d="" fill="#FE8740" transform="translate(0,0)"/>
<path d="" fill="#FE863F" transform="translate(0,0)"/>
<path d="" fill="#F78946" transform="translate(0,0)"/>
<path d="" fill="#FF833F" transform="translate(0,0)"/>
<path d="" fill="#FF8A42" transform="translate(0,0)"/>
<path d="" fill="#FD8B43" transform="translate(0,0)"/>
<path d="" fill="#F98947" transform="translate(0,0)"/>
<path d="" fill="#FF8640" transform="translate(0,0)"/>
<path d="" fill="#FF8541" transform="translate(0,0)"/>
<path d="" fill="#FF8740" transform="translate(0,0)"/>
<path d="" fill="#FF8540" transform="translate(0,0)"/>
<path d="" fill="#F68D4B" transform="translate(0,0)"/>
<path d="" fill="#FF833D" transform="translate(0,0)"/>
<path d="" fill="#FF8541" transform="translate(0,0)"/>
<path d="" fill="#FF843D" transform="translate(0,0)"/>
<path d="" fill="#FF843F" transform="translate(0,0)"/>
<path d="" fill="#FF843D" transform="translate(0,0)"/>
<path d="" fill="#FF8641" transform="translate(0,0)"/>
<path d="" fill="#F58749" transform="translate(0,0)"/>
<path d="" fill="#FF853C" transform="translate(0,0)"/>
<path d="" fill="#F68D4F" transform="translate(0,0)"/>
<path d="" fill="#FA8A4A" transform="translate(0,0)"/>
<path d="" fill="#F99250" transform="translate(0,0)"/>
<path d="" fill="#FF853F" transform="translate(0,0)"/>
<path d="" fill="#FF8340" transform="translate(0,0)"/>
<path d="" fill="#FF8540" transform="translate(0,0)"/>
<path d="" fill="#FA8645" transform="translate(0,0)"/>
<path d="" fill="#FB8446" transform="translate(0,0)"/>
<path d="" fill="#FE8640" transform="translate(0,0)"/>
<path d="" fill="#FE8540" transform="translate(0,0)"/>
<path d="" fill="#FC8643" transform="translate(0,0)"/>
<path d="" fill="#FA8946" transform="translate(0,0)"/>
<path d="" fill="#F5894A" transform="translate(0,0)"/>
<path d="" fill="#969595" transform="translate(0,0)"/>
<path d="" fill="#F78C49" transform="translate(0,0)"/>
<path d="" fill="#F58C4B" transform="translate(0,0)"/>
<path d="" fill="#F48C4D" transform="translate(0,0)"/>
<path d="" fill="#F88D4C" transform="translate(0,0)"/>
<path d="" fill="#F88D4F" transform="translate(0,0)"/>
<path d="" fill="#FD8541" transform="translate(0,0)"/>
<path d="" fill="#FB8944" transform="translate(0,0)"/>
<path d="" fill="#F88546" transform="translate(0,0)"/>
<path d="" fill="#F88744" transform="translate(0,0)"/>
<path d="" fill="#F88A49" transform="translate(0,0)"/>
<path d="" fill="#F98A4C" transform="translate(0,0)"/>
<path d="" fill="#959595" transform="translate(0,0)"/>
<path d="" fill="#F68C4F" transform="translate(0,0)"/>
<path d="" fill="#A1958D" transform="translate(0,0)"/>
<path d="" fill="#949494" transform="translate(0,0)"/>
</svg>